<svg width="1707" height="1124" viewBox="0 0 1707 1124" fill="none" xmlns="http://www.w3.org/2000/svg">
<path d="M424.133 4.93328C418.933 11.1999 412.399 29.4666 410.533 42.1333C408.933 53.9999 410.799 69.7333 415.199 82.1333C427.999 117.333 464.533 146 513.866 159.333C539.599 166.267 547.066 167.2 576.666 167.2C602.266 167.2 605.866 166.933 619.333 163.733C632.666 160.533 657.999 152.267 657.066 151.333C656.799 151.2 650.933 152.533 643.999 154.4C632.666 157.333 628.799 157.733 607.333 157.867C587.599 157.867 581.066 157.333 570.666 155.067C544.799 149.333 524.666 140.533 509.999 128.533C495.199 116.533 489.599 113.333 483.199 113.333C477.333 113.333 470.666 117.333 470.666 120.8C470.666 125.467 467.866 121.733 464.133 112.133C458.666 98.1333 456.799 81.7333 458.666 65.9999C461.733 40.5333 461.733 36.7999 459.466 28.6666C456.533 18.7999 451.333 13.3333 444.799 13.3333C442.266 13.3333 439.733 13.8666 439.333 14.6666C437.333 17.8666 436.133 15.5999 436.799 10.2666C437.466 5.86661 437.066 3.99994 435.333 2.26661C431.866 -1.20006 428.533 -0.400058 424.133 4.93328ZM419.999 30.6666C417.999 41.1999 418.399 60.5333 420.799 69.8666C423.466 80.1333 431.866 98.3999 437.999 106.8C444.266 115.6 442.799 115.2 436.133 106.267C419.199 83.7333 412.533 56.3999 418.133 31.8666C420.533 21.0666 421.999 20.1333 419.999 30.6666Z" fill="#60A5FA"/>
<path d="M1270.67 1.99993C1269.6 3.33326 1269.2 6.26659 1269.73 10.1333C1270.27 15.3333 1270 15.9999 1268.13 15.1999C1258.4 10.9333 1250.67 15.5999 1247.2 27.7333C1245.33 33.8666 1245.2 37.5999 1246.13 47.9999C1246.8 54.9333 1247.33 69.0666 1247.33 79.3333C1247.33 98.7999 1246 105.333 1239.6 117.867L1237.07 123.2L1235.2 119.6C1232.8 115.067 1229.47 113.333 1223.33 113.333C1216.93 113.333 1210.8 116.667 1198 127.2C1181.87 140.533 1160.53 149.867 1133.33 155.6C1124.67 157.467 1116.4 158 1098.67 157.867C1078.13 157.733 1073.87 157.333 1062.67 154.4C1055.73 152.533 1049.87 151.2 1049.6 151.333C1048.93 152 1063.47 157.2 1076 160.8C1147.47 181.6 1242.53 155.733 1278.13 105.867C1285.2 95.9999 1291.2 83.4666 1294 72.6666C1296.67 62.3999 1296.53 43.0666 1293.87 32.1333C1291.2 21.4666 1284.93 7.06659 1281.07 3.06659C1277.73 -0.400074 1273.07 -0.933407 1270.67 1.99993ZM1290.13 45.1999C1291.73 65.5999 1282.53 92.1333 1267.87 109.333C1265.07 112.533 1265.73 110.933 1270 104.4C1283.47 83.1999 1288.67 65.1999 1287.47 44.6666C1287.07 37.3333 1286.4 29.4666 1286 27.3333C1285.6 24.9333 1286.13 25.7333 1287.33 29.1999C1288.4 32.5333 1289.73 39.7333 1290.13 45.1999Z" fill="#60A5FA"/>
<path d="M508 73.3333C505.466 74.7999 502 77.0666 500.266 78.3999L497.066 80.7999L502.4 82.3999C509.2 84.5333 515.6 91.4666 522.533 104.8C531.866 122.933 544 135.333 559.866 142.933C570.133 147.867 589.2 151.333 598.266 150L604.533 149.067L597.333 146.533C587.066 142.933 580.4 138.133 576 131.2C564.8 113.333 570.133 92.2666 589.066 79.5999L592.266 77.5999L588.933 75.3333C580.533 69.8666 571.866 71.7333 566.8 80.1333L564.4 84.1333L561.6 79.4666C555.866 69.7333 546.4 67.7333 542.666 75.5999L540.666 79.8666L537.2 77.1999C528.133 70.6666 515.866 69.0666 508 73.3333ZM536 100.133L541.2 110L541.333 104.667C541.6 94.3999 543.866 93.3333 543.866 103.467C544 115.333 547.6 122.8 556.4 129.333C563.733 134.8 563.733 136.267 556.266 131.467C548.533 126.533 543.466 119.733 534.933 102.4C526.666 85.4666 527.333 83.8666 536 100.133Z" fill="#60A5FA"/>
<path d="M1149.73 73.0667C1148.27 74.2667 1145.6 77.4667 1144.13 80C1142.53 82.5334 1141.33 84 1141.33 83.0667C1141.33 82.2667 1139.33 79.3334 1136.8 76.8C1131.47 71.0667 1125.87 70.5334 1118.67 74.8L1114 77.7334L1117.33 79.7334C1138.67 93.2 1142.13 120.4 1124.67 137.6C1120 142.267 1108.4 147.867 1102.93 148.133C1101.73 148.267 1102.8 148.8 1105.33 149.467C1111.2 151.067 1125.87 149.867 1135.07 147.067C1154.93 141.2 1172.4 126.533 1182.27 107.333C1191.2 90.1334 1195.6 85.2 1204.8 82L1209.2 80.5334L1201.73 75.6C1190.67 68.2667 1180.27 69.0667 1168.4 78.1334L1164 81.4667V78.2667C1164 71.6 1155.6 68.4 1149.73 73.0667ZM1171.2 102.667C1162 121.467 1156.13 128.667 1146.4 133.333C1143.2 134.8 1141.87 135.333 1143.33 134.4C1144.67 133.467 1149.07 129.733 1152.93 126.267C1158.67 120.8 1160.13 118.533 1161.47 112.8C1162.27 108.933 1162.8 103.067 1162.53 99.7334C1161.87 91.4667 1163.73 92.9334 1164.8 101.6L1165.73 108.4L1168.4 103.2C1171.2 97.6 1178.67 85.3334 1179.33 85.3334C1179.6 85.3334 1175.87 93.2 1171.2 102.667Z" fill="#60A5FA"/>
<path d="M397.866 85.8666C397.466 87.5999 397.733 90.2666 398.533 91.7332C399.333 93.3332 399.999 94.6666 399.999 94.9332C399.999 95.1999 396.933 95.0666 393.066 94.7999C384.266 94.2666 377.999 97.3332 374.533 104.267C368.666 115.733 373.066 125.867 385.466 129.333C389.199 130.4 390.799 129.067 387.999 127.333C385.333 125.6 386.533 118.933 390.133 116.133C396.933 110.8 404.133 112.933 417.733 124.267C427.466 132.4 444.133 142 456.399 146.4C472.666 152.133 476.666 152.8 467.466 148C451.733 139.867 432.933 122.933 418.266 103.333C409.599 91.8666 401.466 82.6666 399.733 82.6666C399.199 82.6666 398.399 84.1332 397.866 85.8666Z" fill="#60A5FA"/>
<path d="M849.734 84.6666C845.467 87.6 843.601 96.2666 844.667 107.333C845.601 118.133 853.201 150.667 854.667 150.667C855.201 150.667 857.067 145.733 858.667 139.6C866.134 112 867.067 92.1333 861.201 85.8666C857.734 82.1333 853.867 81.7333 849.734 84.6666Z" fill="#60A5FA"/>
<path d="M1304.27 83.5999C1303.33 83.9999 1298 90.3999 1292.4 97.7332C1274.4 121.733 1256.93 138.133 1239.73 147.467C1229.6 152.933 1230.13 153.067 1243.6 148.533C1262 142.4 1274 135.6 1293.87 120.133C1303.2 112.933 1310.67 111.467 1316.4 116C1320.4 119.2 1321.07 123.333 1318 127.6C1316.13 130.267 1316.13 130.4 1320.8 129.333C1335.2 126 1338.67 108.8 1327.2 98.6666C1322.67 94.7999 1321.73 94.5332 1314.53 94.9332C1306.13 95.3332 1306.27 95.4666 1308.93 88.6666C1309.6 86.5332 1306.27 82.9332 1304.27 83.5999Z" fill="#60A5FA"/>
<path d="M307.199 98C301.466 108.933 299.466 118.667 300.266 132.533C300.799 142 301.599 145.333 304.933 152L309.199 160H303.466C283.733 160 259.866 171.6 249.199 186.267C246.933 189.467 245.333 192.4 245.599 192.8C245.999 193.067 250.933 192 256.799 190.533C272.399 186.267 297.466 186.533 328.666 191.067C351.733 194.4 364.666 195.733 406.266 198.667C445.599 201.467 473.599 210.4 499.733 228.4C511.333 236.4 523.866 249.467 529.599 259.467C531.866 263.467 533.866 266.533 534.266 266.133C534.533 265.867 532.533 259.867 529.599 252.933C517.066 222.4 492.933 196.4 463.333 181.6C450.799 175.333 435.466 171.067 411.866 167.333C377.733 161.867 362.133 158 348.666 151.467C325.733 140.267 313.333 123.333 311.999 101.467L311.333 90L307.199 98Z" fill="#60A5FA"/>
<path d="M1394.4 97.8666C1395.6 116.933 1383.73 136.4 1363.33 148.667C1351.33 155.733 1334.27 160.667 1302.53 165.867C1286.8 168.533 1270.67 171.6 1266.53 172.667C1247.6 177.733 1226.13 189.6 1210.4 203.867C1195.87 217.067 1180.93 239.733 1174.53 258.533C1171.07 268.4 1171.33 268.533 1177.07 258.8C1187.33 241.467 1211.6 222.267 1236.13 212.267C1257.47 203.467 1279.07 199.467 1316.67 197.333C1342.8 195.867 1353.6 194.667 1382 190.4C1407.73 186.533 1435.33 186.533 1449.87 190.533C1455.73 192 1460.67 193.333 1460.93 193.333C1462.8 193.333 1456.27 184.533 1450.27 179.2C1437.07 167.067 1417.07 159.2 1402.27 160.267C1398.8 160.533 1396 160.533 1396 160.4C1396 160.267 1397.47 157.867 1399.33 155.2C1406.4 144.8 1408.67 126.933 1404.67 112.133C1402.8 104.933 1396.27 90.6666 1394.8 90.6666C1394.4 90.6666 1394.27 93.8666 1394.4 97.8666Z" fill="#60A5FA"/>
<path d="M798.934 96.7999C790 103.067 801.734 121.733 830.534 147.6C838.134 154.4 844.667 159.733 844.934 159.467C845.867 158.667 836.4 136.667 829.867 124C822.4 109.733 815.734 100.667 810.267 97.3333C805.067 94.1333 802.8 93.9999 798.934 96.7999Z" fill="#60A5FA"/>
<path d="M899.467 97.2C890.933 102.8 880.933 119.067 870.133 144.4C866.8 152.267 864 159.067 864 159.467C864 162.933 898.4 130.133 906.267 119.067C913.333 109.2 915.067 101.467 911.333 97.3333C908.267 94 904.4 94 899.467 97.2Z" fill="#60A5FA"/>
<path d="M728.667 137.2C710.667 142.4 699.334 149.333 676.401 169.067C638.801 201.467 612.801 215.467 580.667 220.8L575.334 221.6L580.667 223.733C584.001 224.933 590.801 225.733 598.801 225.867L611.734 226L608.401 230C605.067 233.867 605.067 234 605.867 253.333C606.667 270.933 606.534 273.067 604.267 277.6C602.801 280.4 602.267 282.267 603.201 281.733C604.001 281.2 613.734 280.4 624.667 279.867C647.067 279.067 654.267 276.8 658.401 269.2C663.201 260.667 663.467 260.4 665.734 264.8C668.134 269.6 678.134 280.933 681.334 282.667C683.467 283.867 683.601 283.067 682.934 271.333C682.667 264.4 682.667 258.667 683.067 258.667C683.467 258.667 686.134 260 688.801 261.6L693.734 264.533L692.934 260.533C690.267 248.4 689.201 235.467 689.867 226.4C690.801 215.333 695.334 198.667 697.334 198.667C698.134 198.667 698.667 199.2 698.667 199.867C698.667 200.533 700.534 202.933 702.801 205.2C706.134 208.667 708.001 209.333 712.934 209.333C718.001 209.333 719.601 208.667 723.467 204.8C729.201 199.067 729.334 197.067 724.001 199.067C715.867 202.133 708.267 195.733 707.067 184.933C705.601 172.8 716.534 161.467 737.467 153.333C757.067 145.733 777.601 144.8 798.534 150.667C803.867 152.267 808.534 153.2 808.801 152.933C810.001 151.867 781.467 138.533 774.001 136.667C763.067 133.867 739.067 134.133 728.667 137.2ZM734.801 146C722.667 150.8 709.467 160 699.201 171.067C694.401 176.4 682.534 192.4 673.067 206.667C650.534 240.533 643.067 250 631.334 259.067C628.267 261.467 630.801 258.133 637.467 251.2C644.401 244 653.601 232.133 660.667 221.333C667.067 211.467 675.734 198.267 679.867 192C688.667 178.667 708.667 158 717.734 152.667C725.601 148.133 738.534 142.667 741.334 142.8C742.401 142.8 739.467 144.267 734.801 146Z" fill="#60A5FA"/>
<path d="M932.667 136.667C922.267 139.467 913.2 143.333 904.667 148.667C896.534 153.6 896.934 153.733 911.334 149.6C924 146.133 948.8 146.533 960.667 150.4C980.934 157.2 995.6 167.333 998.8 176.933C1003.2 190.4 991.867 204.267 981.2 198.667C976.8 196.267 978.134 200.667 983.334 205.2C991.334 212.133 1000.93 210.4 1006.67 200.933L1009.2 196.8L1010.67 200.8C1016.67 216.267 1018.13 240.4 1014.27 256.267C1013.2 260.533 1012.67 264 1013.07 264C1013.33 264 1015.73 262.8 1018.13 261.2C1022.27 258.667 1022.8 258.667 1023.47 260.667C1024 261.867 1024 267.733 1023.47 273.6L1022.53 284.267L1027.87 280.133C1030.67 277.867 1035.33 272.533 1038.13 268.4L1043.07 260.933L1045.47 265.6C1051.2 276.667 1060 280 1084 280C1092 280 1100 280.533 1101.87 281.333L1105.2 282.533L1102.53 278C1100.13 273.867 1099.87 271.6 1100.27 253.6C1100.67 235.067 1100.4 233.333 1097.87 229.733L1095.07 226L1107.2 225.867C1120 225.867 1131.07 223.333 1127.87 221.2C1126.8 220.533 1124.13 220 1122 220C1116.67 220 1102.8 216 1091.2 211.067C1073.73 203.467 1051.07 188 1028.67 168C1009.6 150.933 992.934 140.933 976.534 136.8C966.4 134.133 942 134.133 932.667 136.667ZM974 145.467C985.2 149.6 1000.13 160.267 1010 171.067C1014.93 176.4 1024.67 189.6 1031.73 200.4C1050.13 228.533 1058.27 240 1067.87 251.067C1076.27 260.667 1076.27 260.667 1065.2 249.333C1057.6 241.467 1048.93 230.133 1036.53 211.333C1026.8 196.667 1015.47 180.667 1011.33 175.6C999.734 161.6 985.067 151.067 968.934 145.2C965.067 143.867 963.067 142.8 964.267 142.667C965.6 142.667 969.867 143.867 974 145.467Z" fill="#60A5FA"/>
<path d="M662.666 155.2C652 161.067 616.133 171.467 592.666 175.6C578.266 178 524.8 178.933 513.466 176.933C508 176 507.733 176.133 509.466 178.133C513.066 182.533 527.2 190.667 535.866 193.467C540.666 194.933 548.4 196.267 552.933 196.4C557.333 196.533 560.8 197.067 560.533 197.467C560.266 198 553.866 200.933 546.4 204.133L532.933 210L538 211.2C556.266 215.467 603.6 197.733 642 172.267C661.2 159.467 673.466 149.333 662.666 155.2ZM626.666 175.333C626.666 175.6 620.933 177.733 614 180C597.6 185.2 574.266 187.733 560 185.733L550 184.4L568.266 184.133C586.4 184 605.066 181.333 618.666 176.933C625.466 174.667 626.666 174.4 626.666 175.333Z" fill="#60A5FA"/>
<path d="M1044.67 158.133C1056.8 168.8 1089.33 188.533 1109.33 197.333C1133.6 208 1158.93 213.867 1169.2 211.067L1173.73 209.867L1161.73 204.933C1144.27 197.6 1143.33 196.667 1153.6 196.4C1164.8 196 1178.13 191.6 1188.27 184.8C1197.47 178.533 1199.87 175.2 1193.73 176.933C1191.73 177.467 1175.87 178 1158.67 178C1131.87 178 1124.8 177.467 1110.13 174.933C1089.6 171.2 1069.6 165.6 1052.13 158.667L1039.33 153.467L1044.67 158.133ZM1097.33 179.6C1107.47 182.267 1114.67 183.2 1133.33 183.867L1156.67 184.8L1144.93 185.867C1125.73 187.733 1098.67 183.6 1084 176.8C1081.47 175.6 1080.53 174.933 1082 175.467C1083.47 175.867 1090.4 177.733 1097.33 179.6Z" fill="#60A5FA"/>
<path d="M349.334 207.2C349.334 208.533 357.867 211.6 369.467 214.533C386.534 218.933 411.467 217.867 426.667 212.267C430.934 210.667 419.467 209.733 383.334 208.667C368.667 208.267 355.067 207.6 353.067 207.2C350.934 206.8 349.334 206.8 349.334 207.2Z" fill="#60A5FA"/>
<path d="M1318 208.8C1272.27 210.933 1275.87 210.533 1280 212.133C1297.6 219.2 1326.13 218.8 1348.8 211.333C1355.47 209.067 1359.6 206.533 1356 206.933C1354.93 206.933 1337.87 207.867 1318 208.8Z" fill="#60A5FA"/>
<path d="M316.001 224C316.001 226.133 328.401 236 334.801 238.933C341.467 242.133 343.067 244 338.934 244C334.934 244 329.867 250.533 324.267 262.667C320.934 270 317.334 275.6 314.134 278.4C310.001 282 309.601 282.8 311.601 283.467C314.934 284.4 325.601 289.733 335.734 295.333C346.134 301.067 352.801 301.467 361.067 296.667L366.667 293.467V299.6C366.667 306.4 370.401 321.333 372.134 321.333C372.667 321.333 373.467 319.733 374.001 317.6C374.401 315.6 376.667 311.067 378.934 307.467C383.201 300.4 383.201 300.4 387.467 307.467C388.667 309.6 389.201 308.933 391.334 302.667C396.534 286.4 408.401 268.667 418.934 261.2L422.934 258.267L422.001 261.2C420.801 265.067 423.601 272.933 427.067 275.333C430.667 277.867 440.001 278 443.334 275.467C445.601 273.867 445.601 273.733 442.134 272.8C434.001 270.8 430.801 262 435.334 253.333C440.401 243.6 452.134 240 471.067 242.533C491.334 245.2 507.201 253.067 522.401 268L531.201 276.667L527.334 270C516.934 252 506.134 240.933 491.201 233.067C470.401 222.133 451.067 220.8 415.334 228C377.201 235.6 345.734 234.933 324.134 226.267C319.601 224.4 316.001 223.467 316.001 224ZM476.001 234.8C485.734 236.933 483.601 237.467 472.801 235.733C461.867 233.867 446.667 235.6 432.667 240.133C427.601 241.867 411.334 249.2 396.667 256.4C382.001 263.6 367.067 270.667 363.334 272C355.067 275.067 339.867 279.067 339.201 278.267C338.934 278 342.667 276.667 347.601 275.333C360.534 271.867 372.401 266.8 393.867 255.467C415.334 244.133 430.401 237.867 442.001 235.333C452.001 233.067 467.067 232.933 476.001 234.8Z" fill="#60A5FA"/>
<path d="M1242 224C1217.07 227.867 1195.6 242.533 1181.87 265.067C1174.93 276.4 1174.4 278.533 1180.13 271.6C1189.47 260.4 1208.4 248.533 1224.13 244.533C1234.53 241.733 1253.6 241.333 1260.4 243.733C1266.8 246.133 1272.13 253.067 1272.93 260.4C1273.6 265.6 1273.2 266.533 1269.33 269.733C1267.07 271.733 1264.13 273.333 1262.93 273.333C1260.93 273.467 1261.07 273.733 1263.2 275.333C1264.67 276.4 1268.4 277.333 1271.47 277.333C1278.8 277.333 1284 271.733 1284 263.867V258.533L1289.47 262.933C1299.47 271.067 1309.73 286.8 1314.8 302C1317.33 309.733 1318.53 310.533 1320.27 305.6C1321.2 303.2 1322.53 301.467 1323.33 301.733C1324 302 1326.8 306.533 1329.6 311.867C1332.27 317.2 1334.8 320.933 1335.2 320.267C1336.8 317.6 1340 303.2 1340 298.4V293.2L1344 296.133C1346.53 298.133 1350.4 299.333 1354.93 299.6C1360.8 300 1363.2 299.467 1369.33 296C1378.8 290.8 1392 284.4 1395.2 283.333C1397.6 282.667 1397.33 282.267 1393.6 280C1390.53 278.133 1387.73 274 1383.2 264.533C1376.13 250.133 1371.6 244 1367.87 244C1363.6 244 1365.07 242.133 1372 238.8C1378.67 235.6 1390.67 226.133 1390.67 224C1390.67 223.467 1386.93 224.533 1382.4 226.267C1360.13 235.333 1329.47 235.6 1287.33 227.333C1268 223.6 1252.67 222.4 1242 224ZM1264 235.333C1277.47 238.533 1285.33 241.867 1313.73 256.133C1328.27 263.467 1345.33 271.2 1351.73 273.467C1359.07 276 1361.33 277.067 1358 276.667C1349.87 275.333 1330.93 267.467 1306.67 255.067C1278.4 240.8 1263.47 235.867 1247.33 235.6C1240.8 235.467 1232.67 235.733 1229.33 236.267L1223.33 237.067L1228.67 235.333C1235.87 232.933 1253.47 232.933 1264 235.333ZM1367.6 278.133C1367.2 278.533 1366 278.667 1365.07 278.267C1364 277.867 1364.4 277.467 1365.87 277.467C1367.33 277.333 1368.13 277.733 1367.6 278.133Z" fill="#60A5FA"/>
<path d="M77.0667 259.6C76.5333 275.2 75.7333 282.4 74 287.067C70.8 295.733 60.2667 307.067 50.9333 311.6C43.7333 315.2 42.2667 315.333 21.6 315.867L0 316.267V612.667V909.2L22.4 909.6C42.2667 910 45.3333 910.267 50.8 913.067C60.6667 917.867 67.4667 924.667 72.2667 934.4C76.5333 943.067 76.6667 943.6 77.2 964.267L77.6 985.333H143.467C200.933 985.333 209.333 985.067 209.333 983.333C209.333 981.6 201.067 981.333 145.733 981.067L82 980.667L81.3333 960C80.6667 939.6 80.5333 939.2 76.1333 930.933C70.6667 920.8 62.2667 912.933 52.2667 908.267C45.3333 905.067 42.8 904.667 25.0667 904.267L5.33333 903.733V612.667V321.733L23.7333 321.067C38.1333 320.533 43.6 319.733 49.6 317.467C62.9333 312.267 73.6 301.6 78.8 288C80.8 282.533 81.3333 277.733 81.3333 262.667V244H145.333C208.4 244 209.333 244 209.333 241.333C209.333 238.667 208.4 238.667 143.467 238.667H77.6L77.0667 259.6Z" fill="#60A5FA"/>
<path d="M1496.67 240C1496.27 240.667 1496.27 241.867 1496.67 242.667C1497.2 243.467 1520 244 1560.53 244H1623.6L1624.27 263.067C1624.8 280.933 1625.07 282.667 1628.93 290.933C1634.13 302.133 1640.67 309.2 1650.27 314.4C1659.87 319.467 1670 321.333 1687.6 321.333H1701.33V612.533V903.733L1681.6 904.267C1662.53 904.667 1661.73 904.8 1653.07 909.067C1642 914.533 1632 925.067 1627.87 935.733C1625.47 942 1624.8 946.8 1624.27 962.267L1623.73 981.333H1560.13C1504.4 981.333 1496.4 981.6 1496.4 983.333C1496.4 985.067 1504.67 985.333 1562.8 985.333H1629.07L1629.6 963.6C1630 943.2 1630.27 941.6 1633.73 934.533C1638 925.733 1646.93 916.933 1655.73 912.933C1661.07 910.4 1665.2 909.867 1684 909.333L1706 908.667L1706.4 612.4L1706.67 316.267L1685.07 315.733C1664.8 315.333 1662.8 315.067 1655.87 311.867C1646.27 307.333 1638 299.067 1633.47 289.467C1630.27 282.533 1630 280.533 1629.6 260.267L1629.07 238.667H1563.33C1520.8 238.667 1497.2 239.2 1496.67 240Z" fill="#60A5FA"/>
<path d="M99.3327 272.267C96.7994 300.667 83.9994 320.133 60.266 331.6C52.266 335.467 47.866 336.533 36.5327 337.733L22.666 339.2V612.933V886.667H30.5327C59.1994 886.667 83.3327 902.667 94.5327 929.2C96.3994 933.733 98.1327 941.6 98.9327 950.267L100.399 964H154.799C197.066 964 209.199 963.6 209.733 962.267C209.999 961.467 209.733 958.933 209.066 956.667C208.533 954.533 208.399 950.667 208.799 948.4L209.599 944H164.133H118.666L117.999 940.267C117.599 938.267 115.733 932 113.999 926.4C105.333 898.667 81.5994 876.933 51.9994 869.467L41.9993 866.933L41.5993 612.267L41.3327 357.6L51.466 355.333C66.666 352 81.466 343.733 92.666 332.667C106.266 319.067 113.466 305.333 117.866 284.933L118.666 281.333H163.866H208.933L209.066 274.267C209.066 270.533 209.333 266.133 209.599 264.667C209.999 262 209.199 262 155.199 261.6L100.266 261.333L99.3327 272.267Z" fill="#60A5FA"/>
<path d="M1496.67 266.267C1497.73 271.467 1497.87 273.467 1497.07 278C1496.67 280.667 1497.47 280.667 1542.13 281.067L1587.6 281.333L1589.2 289.067C1594.8 314.267 1612.4 336.8 1635.33 348.133C1641.2 350.933 1650 354.267 1655.07 355.6L1664 357.733V612.667V867.467L1655.73 869.067C1645.33 870.933 1628.27 879.333 1619.07 886.933C1604.4 899.2 1594 916 1589.73 934.267L1587.47 944L1542 944.267C1502.4 944.667 1496.8 944.933 1497.2 946.667C1497.6 947.733 1497.6 950.4 1497.47 952.667C1497.2 954.8 1496.93 958.133 1496.8 960L1496.67 963.333L1551.73 963.733L1606.67 964V956.933C1606.67 917.6 1636.67 886.667 1674.93 886.667H1684V612.933V339.2L1669.87 337.733C1657.6 336.4 1654.13 335.467 1644.8 330.8C1632.93 324.933 1622 314.933 1615.6 303.867C1611.07 296 1606.67 279.067 1606.67 269.067V261.333H1551.2H1495.73L1496.67 266.267Z" fill="#60A5FA"/>
<path d="M368.801 810.4C367.601 814.667 366.667 820.933 366.667 824.267V830.533L360.534 827.067C351.601 822 344.934 823.067 329.734 831.867C323.067 835.6 315.334 839.467 312.534 840.267C309.467 841.067 308.134 842 309.334 842.4C314.001 843.867 319.334 850.667 324.267 861.333C329.867 873.467 333.467 878.267 338.534 880.133C341.601 881.333 341.334 881.6 334.934 884.8C328.267 888.133 316.001 897.867 316.001 900C316.001 900.533 319.734 899.467 324.267 897.733C335.601 893.067 350.001 890.8 366.934 890.667C383.201 890.667 394.801 892 419.334 896.933C471.601 907.333 504.267 894.267 527.467 854L531.201 847.333L522.401 856C507.067 870.933 491.334 878.8 471.067 881.467C452.134 884 440.401 880.4 435.334 870.667C430.801 862 434.001 853.2 442.134 851.2C445.601 850.267 445.601 850.133 443.334 848.533C440.001 846 430.667 846.133 427.067 848.667C423.601 851.067 420.801 858.933 422.001 862.8L422.934 865.733L418.934 862.8C408.401 855.333 396.534 837.6 391.334 821.333C389.201 815.067 388.667 814.4 387.467 816.533C383.201 823.6 383.201 823.6 378.934 816.533C376.667 812.933 374.401 808.4 374.001 806.267C372.667 800.8 371.201 801.867 368.801 810.4ZM357.334 850.133C363.334 852 380.534 859.6 395.734 867.067C410.934 874.667 427.334 882.133 432.267 883.733C449.067 889.2 463.601 890.267 479.734 887.333C481.734 887.067 480.667 887.6 477.334 888.8C472.934 890.267 467.734 890.667 457.334 890.267C438.934 889.467 427.734 885.733 396.134 869.6C370.001 856.267 362.667 853.067 350.001 849.333C345.601 848 343.067 846.8 344.267 846.8C345.467 846.667 351.334 848.267 357.334 850.133Z" fill="#60A5FA"/>
<path d="M1329.33 812.4C1326.8 817.6 1324 822 1323.33 822.267C1322.53 822.533 1321.2 820.8 1320.27 818.4C1318.53 813.467 1317.33 814.267 1314.8 822C1309.73 837.2 1299.07 853.6 1289.2 861.333L1284 865.6V860C1284 852.4 1278.4 846.667 1271.07 846.667C1265.87 846.667 1258 850.533 1262.93 850.667C1264.13 850.667 1267.07 852.267 1269.33 854.267C1273.2 857.467 1273.6 858.4 1272.93 863.733C1272.13 871.067 1268.67 875.867 1261.87 879.333C1257.73 881.467 1254.13 882 1244 882C1221.47 881.867 1201.47 873.333 1184.53 856.667C1179.87 852.133 1176 848.533 1176 848.8C1176 849.067 1178.67 853.6 1181.87 858.933C1196.13 882.4 1216.4 895.867 1243.33 900C1255.07 901.733 1264.67 901.067 1287.47 896.533C1330.27 888.133 1361.87 888.933 1384.67 898.667C1390.67 901.2 1390.67 901.2 1389.33 898.667C1387.47 895.2 1376.93 887.333 1370.53 884.4C1364.93 882 1363.73 880 1367.87 880C1371.6 880 1376.13 873.867 1383.2 859.333C1387.6 850.533 1390.67 845.733 1393.2 844.267L1396.93 842.267L1384.13 835.6C1377.07 832 1368.93 827.867 1366.13 826.4C1359.47 823.067 1349.6 823.6 1343.87 827.867L1340 830.8V825.6C1340 820.267 1336.53 805.2 1334.93 803.867C1334.4 803.467 1331.87 807.333 1329.33 812.4ZM1367.6 846.133C1367.2 846.533 1366 846.667 1365.07 846.267C1364 845.867 1364.4 845.467 1365.87 845.467C1367.33 845.333 1368.13 845.733 1367.6 846.133ZM1351.73 850.667C1345.33 852.8 1328.27 860.533 1313.73 867.867C1285.47 882.133 1277.6 885.467 1264 888.667C1253.47 891.067 1235.87 891.067 1228.67 888.667L1223.33 886.933L1229.33 887.733C1232.67 888.267 1240.8 888.533 1247.33 888.4C1264 888.133 1276.13 884 1310 867.333C1336.4 854.267 1354.67 846.8 1360.67 846.8C1362.13 846.8 1358.13 848.533 1351.73 850.667Z" fill="#60A5FA"/>
<path d="M677.332 844.8C674.399 847.467 669.999 852.667 667.732 856.267C663.066 863.333 663.199 863.333 658.399 854.8C654.266 847.2 647.066 844.933 624.666 844.133C613.732 843.6 603.999 842.8 603.199 842.267C602.266 841.733 602.799 843.6 604.266 846.4C606.532 850.933 606.666 853.067 605.866 870.667L605.066 890.133L608.399 894.133L611.866 898.133H600.266C587.999 898 574.399 900.8 577.599 902.8C578.532 903.467 581.199 904 583.466 904C590.932 904 610.799 910.667 623.866 917.467C639.866 925.6 655.332 936.8 676.932 955.333C695.599 971.467 709.866 980.667 723.466 985.333C735.732 989.467 760.799 990.667 773.466 987.467C781.466 985.467 810.132 972.267 808.932 971.067C808.532 970.8 803.866 971.733 798.532 973.333C777.599 979.2 757.066 978.267 737.466 970.667C716.532 962.533 705.599 951.2 707.066 939.067C708.266 928.267 715.866 921.867 723.999 924.933C729.332 926.933 729.199 924.933 723.466 919.2C719.599 915.333 717.999 914.667 712.932 914.667C707.999 914.667 706.132 915.333 702.799 918.8C700.532 921.067 698.666 923.467 698.666 924.133C698.666 924.8 698.132 925.333 697.332 925.333C695.332 925.333 690.799 908.667 689.866 897.6C689.199 888.533 690.266 875.6 692.932 863.467L693.732 859.467L688.799 862.4C686.132 864 683.466 865.333 683.066 865.333C682.666 865.333 682.666 859.6 682.932 852.667C683.332 845.733 683.466 840 683.199 840C682.932 840 680.266 842.133 677.332 844.8ZM641.599 874.267C648.132 881.2 660.666 898.533 676.266 922.267C696.932 953.867 713.466 969.467 734.799 978C739.466 979.867 741.599 981.067 739.332 980.667C737.199 980.267 730.266 977.467 723.999 974.4C714.532 969.867 710.532 966.8 699.866 956.133C691.999 948.133 683.732 938.133 677.999 929.333C673.066 921.6 664.399 908.4 658.932 900C653.332 891.6 643.732 879.333 637.466 872.8C630.799 865.867 628.266 862.533 631.332 864.933C634.266 867.2 638.799 871.467 641.599 874.267Z" fill="#60A5FA"/>
<path d="M1023.47 850.4C1024 856.267 1024 862.133 1023.47 863.333C1022.8 865.333 1022.27 865.333 1018.13 862.8C1015.73 861.2 1013.33 860 1013.07 860C1012.67 860 1013.2 863.467 1014.27 867.6C1018.13 883.6 1016.67 907.733 1010.67 923.2L1009.2 927.2L1006.67 923.067C1000.93 913.6 991.333 911.867 983.333 918.8C978.133 923.333 976.799 927.733 981.199 925.333C991.199 920 1001.87 931.6 999.333 945.067C997.466 955.333 980.533 967.6 959.333 974.133C948.799 977.333 921.333 977.467 910.666 974.4C906.666 973.2 901.866 971.733 899.999 971.333L896.666 970.4L899.733 972.533C905.733 977.067 923.599 985.067 932.133 987.2C944.666 990.267 966.266 990 977.866 986.667C995.066 981.733 1009.6 973.067 1028.67 956C1058.93 928.933 1086 912.667 1111.47 906C1115.73 904.933 1121.2 904 1123.6 904C1125.87 904 1128.13 903.467 1128.67 902.667C1130 900.533 1118.53 898.133 1106.53 898.133H1094.93L1097.87 894.267C1100.53 890.667 1100.67 889.067 1100.27 870.4C1099.87 852.267 1100 850.133 1102.53 845.867C1104.13 843.333 1104.53 841.6 1103.73 842.267C1102.8 842.8 1092.93 843.6 1081.87 844C1058.27 844.933 1053.87 846.533 1047.07 856.4L1042.8 862.667L1038 855.333C1035.33 851.333 1030.67 846.133 1027.87 843.867L1022.53 839.733L1023.47 850.4ZM1070.13 871.2C1060 881.6 1053.2 890.8 1032 923.333C1016.4 947.067 1004.8 960.133 991.333 969.2C981.599 975.6 968.799 981.467 964.266 981.2C963.066 981.2 964.399 980.4 967.466 979.467C975.333 976.933 987.733 970.133 996.266 963.333C1006.93 954.933 1016 943.467 1037.07 912C1050.4 891.867 1058.27 881.6 1066.67 872.933C1073.07 866.533 1078.53 861.333 1079.07 861.333C1079.47 861.333 1075.47 865.733 1070.13 871.2Z" fill="#60A5FA"/>
<path d="M529.333 864.933C523.999 874.267 507.466 891.067 497.066 897.733C470.933 914.4 443.866 922.667 407.333 925.333C359.333 928.8 351.199 929.6 329.333 932.933C299.199 937.467 272.666 937.733 256.666 933.6C250.799 932.133 245.733 931.067 245.466 931.333C244.666 932.267 248.933 938.267 254.133 943.467C265.466 954.8 282.666 962.533 298.799 963.6L308.933 964.4L304.933 972.267C297.466 986.667 298.399 1009.2 307.199 1026L311.333 1034L311.999 1022.53C313.466 998.4 328.133 980.533 355.866 969.333C366.933 964.8 376.666 962.533 408.533 957.333C435.466 952.933 450.533 948.8 463.333 942.4C492.933 927.6 517.066 901.6 529.599 871.067C532.533 864.133 534.533 858.133 534.266 857.867C533.866 857.467 531.733 860.667 529.333 864.933Z" fill="#60A5FA"/>
<path d="M1172 858.133C1172 860.267 1177.33 873.333 1182 882.533C1187.87 894.267 1200.67 911.2 1210.27 920.133C1225.6 934.133 1247.47 946.267 1266.53 951.333C1270.67 952.4 1286.67 955.467 1302.27 958C1333.47 963.2 1343.87 966 1358.27 972.8C1380.93 983.6 1395.73 1005.47 1394.4 1026.13C1394.27 1030.13 1394.4 1033.33 1394.8 1033.33C1396.27 1033.33 1402.8 1019.07 1404.67 1011.87C1408.67 997.067 1406.4 979.2 1399.33 968.8C1397.47 966.133 1396 963.733 1396 963.6C1396 963.467 1398.53 963.467 1401.73 963.733C1416.53 964.933 1436.8 957.2 1449.73 945.333C1456.13 939.467 1462.8 930.667 1460.93 930.667C1460.67 930.667 1455.87 931.867 1450.13 933.333C1429.33 938.667 1416.8 938.4 1366 931.467C1352.8 929.6 1330.67 927.467 1316.67 926.667C1274.53 924.267 1249.07 918.667 1224.93 906.667C1204.67 896.4 1186.13 880.4 1176.8 864.8C1174.13 860.4 1172 857.333 1172 858.133Z" fill="#60A5FA"/>
<path d="M374.799 908.133C360.266 910.933 341.333 918.667 353.599 916.8C355.999 916.4 369.733 915.733 383.999 915.333C398.266 914.933 414.399 914.267 419.866 913.733L429.733 912.933L424.533 911.2C411.333 906.8 388.533 905.467 374.799 908.133Z" fill="#60A5FA"/>
<path d="M1291.33 908.667C1276.27 912.133 1275.6 912.933 1286.67 913.867C1300 914.933 1356.53 917.067 1357.2 916.533C1358 915.867 1351.07 913.333 1340.67 910.4C1328.53 906.933 1302.67 906 1291.33 908.667Z" fill="#60A5FA"/>
<path d="M536.133 913.2C533.466 913.867 535.066 914.933 546.533 919.867C553.866 923.067 560.266 926 560.533 926.533C560.933 927.067 557.466 927.6 552.8 927.733C548.266 927.867 540.666 929.067 535.866 930.667C527.2 933.333 513.066 941.467 509.466 945.867C507.733 947.867 508 948 513.466 947.067C524.8 945.067 578.266 946 592.666 948.4C615.866 952.533 650.133 962.4 664.133 969.2C670.533 972.4 658.133 962.533 642 951.867C623.866 939.733 594.266 924.533 578.533 919.333C561.2 913.467 543.866 910.933 536.133 913.2ZM601.333 940.667C612 943.2 627.066 948.133 626.266 948.8C626 949.067 621.866 948.133 617.2 946.8C603.066 942.4 586 940 567.466 939.733C554.533 939.6 551.6 939.333 556 938.533C564.533 937.067 591.2 938.4 601.333 940.667Z" fill="#60A5FA"/>
<path d="M1149.47 913.467C1125.07 917.6 1086.4 935.867 1053.87 958.8C1038.53 969.733 1038.27 971.067 1052.27 965.333C1069.33 958.667 1090.93 952.533 1110 949.2C1129.2 945.867 1167.33 944.4 1184.67 946.4C1191.33 947.2 1196.93 947.6 1197.2 947.333C1197.87 946.533 1189.73 939.867 1184.13 936.4C1176.27 931.733 1163.2 928 1153.87 927.733C1143.2 927.333 1144.13 926.4 1161.87 919.067C1172 914.8 1173.33 914 1170.53 913.2C1166.13 912 1158.13 912.133 1149.47 913.467ZM1150 938.533C1154.93 939.2 1150.53 939.733 1133.33 940.267C1110.67 940.933 1104.13 942 1082 948.667C1080.53 949.067 1081.73 948.267 1084.67 946.933C1100.53 939.6 1130.27 935.733 1150 938.533Z" fill="#60A5FA"/>
<path d="M544.667 958.133C512.401 963.067 481.867 974 458.934 988.8C448.667 995.6 428.401 1016.27 422.801 1025.73C412.801 1042.8 408.134 1064.13 410.534 1081.87C413.334 1101.33 424.001 1124 430.667 1124C435.334 1124 437.734 1120 436.801 1113.73C436.134 1108.4 437.334 1106.13 439.334 1109.33C439.734 1110 442.267 1110.67 444.801 1110.67C451.334 1110.67 456.534 1105.2 459.467 1095.33C461.734 1087.2 461.734 1083.47 458.667 1058C456.801 1042.27 458.667 1025.87 464.134 1011.87C467.867 1002.27 470.667 998.533 470.667 1003.2C470.667 1006.67 477.334 1010.67 483.201 1010.67C489.467 1010.67 495.067 1007.47 510.001 995.6C521.334 986.4 530.267 981.6 546.001 976C579.734 964.133 617.201 962.267 647.867 970.667C652.667 972 656.801 972.933 657.067 972.667C657.734 972.133 636.001 964.4 626.801 962C603.734 956 568.934 954.4 544.667 958.133ZM438.001 1017.2C431.867 1025.73 423.467 1043.87 420.667 1054.67C418.801 1061.47 418.534 1066.8 419.067 1079.33C419.467 1088.13 420.134 1096.8 420.534 1098.67C420.934 1100.53 420.401 1099.33 419.201 1096C418.001 1092.67 416.801 1084.27 416.401 1077.33C415.734 1066.8 416.134 1062.67 418.534 1054.13C422.001 1041.6 428.801 1027.33 436.134 1017.6C442.801 1008.8 444.267 1008.4 438.001 1017.2Z" fill="#60A5FA"/>
<path d="M1106 956.8C1087.87 959.6 1055.73 968.4 1050.67 972.133C1049.07 973.333 1049.2 973.467 1051.33 972.667C1071.33 966 1102.4 963.733 1124.67 967.067C1154.4 971.733 1179.2 981.867 1198.53 997.2C1212.27 1008.13 1216.93 1010.67 1223.33 1010.67C1229.47 1010.67 1232.8 1008.93 1235.2 1004.4L1237.07 1000.8L1239.6 1006.13C1246 1018.67 1247.33 1025.2 1247.33 1044.67C1247.33 1054.93 1246.8 1069.07 1246.13 1076C1245.2 1086.4 1245.33 1090.13 1247.2 1096.27C1250.67 1108.4 1258.4 1113.07 1268.13 1108.8C1270 1108 1270.27 1108.67 1269.73 1113.87C1268.93 1120.8 1270.67 1124 1275.2 1124C1279.33 1124 1283.2 1119.47 1288 1108.93C1293.6 1096.53 1296 1085.47 1296 1071.33C1296 1025.73 1261.33 987.2 1202.93 968C1177.47 959.733 1161.6 957.067 1134 956.667C1120.8 956.4 1108.27 956.533 1106 956.8ZM1276 1026.27C1289.47 1048.27 1293.87 1075.2 1287.33 1094.8C1286.13 1098.27 1285.6 1099.07 1286 1096.67C1286.4 1094.4 1287.07 1086.67 1287.47 1079.33C1288.67 1058.8 1283.47 1040.8 1270 1019.6C1265.73 1013.07 1265.07 1011.47 1267.87 1014.67C1270 1017.2 1273.73 1022.4 1276 1026.27Z" fill="#60A5FA"/>
<path d="M463.333 975.2C448.133 980 434.133 987.467 420.266 997.867C404.666 1009.6 402.799 1010.67 396.933 1010.67C389.333 1010.67 383.466 1001.07 388.266 996.267C390.666 993.867 384.799 994.133 379.999 996.667C372.133 1000.67 369.866 1010.67 374.666 1020C378.266 1026.93 383.599 1029.73 392.799 1029.07C398.799 1028.8 399.866 1029.07 399.199 1030.67C397.466 1034.53 397.333 1038 398.533 1040C400.266 1042.53 404.266 1038.8 415.066 1024.67C434 999.733 454.133 981.467 471.066 974.133C477.6 971.2 473.733 971.733 463.333 975.2Z" fill="#60A5FA"/>
<path d="M1239.73 976.533C1256.93 985.867 1274.4 1002.27 1292.4 1026.13C1297.87 1033.6 1303.47 1040 1304.53 1040.4C1307.6 1041.6 1309.6 1037.07 1308 1032.8L1306.67 1029.33H1314.67C1321.6 1029.33 1323.2 1028.8 1327.33 1025.2C1338.67 1015.2 1335.07 997.867 1320.8 994.667C1316.13 993.6 1316.13 993.733 1318 996.4C1321.07 1000.67 1320.4 1004.8 1316.4 1008C1310.67 1012.53 1303.2 1011.07 1293.87 1003.87C1273.87 988.267 1261.73 981.467 1243.33 975.467C1237.47 973.6 1232.4 972 1232 972C1231.6 972 1235.07 974.133 1239.73 976.533Z" fill="#60A5FA"/>
<path d="M580.8 974.8C554.666 979.067 535.866 993.467 522.533 1019.2C515.6 1032.4 509.2 1039.47 502.533 1041.47C499.733 1042.4 497.733 1043.6 498.133 1044.27C500 1047.2 513.066 1053.33 517.466 1053.33C523.333 1053.33 532.266 1050.4 537.2 1046.8L540.666 1044.13L542.666 1048.4C546.4 1056.27 555.866 1054.27 561.6 1044.53L564.4 1039.87L566.8 1043.87C571.866 1052.27 580.533 1054.13 588.933 1048.67L592.266 1046.4L589.066 1044.4C570.133 1031.73 564.8 1010.67 576 992.8C580.4 985.867 587.066 981.067 597.2 977.467L604.133 975.067L599.866 974.133C594.666 973.2 589.466 973.333 580.8 974.8ZM560 991.733C548 1000.13 544 1007.07 543.866 1020.8C543.866 1030.67 541.6 1029.47 541.333 1019.33L541.2 1014L536 1024.13C533.2 1029.6 530.133 1034.8 529.066 1035.6C526.933 1037.47 540.933 1008.93 545.2 1002.93C548.4 998.267 559.6 989.333 562 989.467C562.8 989.467 561.866 990.533 560 991.733Z" fill="#60A5FA"/>
<path d="M1104.67 974.533C1102.53 975.2 1101.73 975.733 1102.93 975.867C1108.53 976.267 1120 981.733 1124.67 986.4C1127.47 989.067 1131.2 994.533 1133.07 998.533C1140.53 1014.8 1133.33 1034.93 1116.53 1044.8C1114.13 1046.13 1114.4 1046.53 1118.67 1049.2C1125.87 1053.47 1131.47 1052.93 1136.8 1047.2C1139.33 1044.67 1141.33 1041.73 1141.33 1040.93C1141.33 1040 1142.53 1041.47 1144.13 1044C1147.87 1050.13 1151.87 1053.33 1156.27 1053.33C1160.8 1053.33 1164 1050.13 1164 1045.73V1042.27L1167.07 1045.07C1171.73 1049.47 1181.47 1053.33 1188.13 1053.33C1193.07 1053.33 1195.87 1052.27 1201.73 1048.4L1209.2 1043.47L1204.8 1042C1195.6 1038.8 1191.2 1033.87 1182.27 1016.67C1172.4 997.467 1154.93 982.8 1134.93 976.8C1126.27 974.267 1110.13 973.067 1104.67 974.533ZM1146.8 990.667C1156.27 995.6 1162.13 1002.93 1171.33 1021.6C1179.87 1039.07 1179.07 1040.8 1170.27 1024.13L1165.73 1015.73L1164.8 1022.53C1163.73 1031.07 1161.87 1032.4 1162.53 1024.27C1163.33 1013.2 1160.67 1005.2 1153.6 998.4C1150.13 995.067 1145.6 991.333 1143.33 990.267C1141.2 989.067 1139.87 988.133 1140.4 988C1140.93 988 1143.87 989.2 1146.8 990.667Z" fill="#60A5FA"/>
<path d="M835.2 996.267C809.6 1018.53 796.133 1034.8 795.067 1044.67C794.4 1049.73 794.8 1050.67 797.867 1052.67C800 1054.13 802.533 1054.67 804.533 1054.13C809.333 1052.93 818.8 1042.53 825.067 1031.6C831.2 1020.93 844.667 990.8 843.733 990C843.467 989.6 839.6 992.533 835.2 996.267Z" fill="#60A5FA"/>
<path d="M862.666 990.267C862.666 992.533 871.333 1012.4 877.999 1025.2C885.733 1040 892.799 1049.33 899.066 1052.67C903.599 1055.07 904.266 1055.2 907.599 1053.33C912.266 1050.8 913.066 1044.67 909.866 1038.4C905.999 1030.67 893.999 1016.8 881.866 1006C875.333 1000.27 868.399 994 866.399 992.133C864.266 990.267 862.666 989.467 862.666 990.267Z" fill="#60A5FA"/>
<path d="M848.934 1011.6C842.134 1037.6 840.934 1051.87 845.067 1060C849.867 1069.6 859.734 1068 862.8 1057.07C864 1052.67 864 1048.4 862.934 1039.33C861.334 1026.93 855.334 1001.47 853.467 999.6C852.934 999.067 850.8 1004.4 848.934 1011.6Z" fill="#60A5FA"/>
</svg>
